<svg xmlns="http://www.w3.org/2000/svg" viewBox="0 0 48 48">
  <rect width="48" height="48" rx="10" fill="#000"/>
  <path d="M8 34l-3 5V12a4 4 0 014-4h18a4 4 0 014 4v14a4 4 0 01-4 4H14z" fill="#3b82f6"/>
  <line x1="13" y1="16" x2="13" y2="24" stroke="white" stroke-width="1.5" stroke-linecap="round" opacity="0.7"/>
  <line x1="16" y1="14" x2="16" y2="26" stroke="white" stroke-width="1.5" stroke-linecap="round" opacity="0.7"/>
  <line x1="19" y1="17" x2="19" y2="23" stroke="white" stroke-width="1.5" stroke-linecap="round" opacity="0.7"/>
  <line x1="22" y1="13" x2="22" y2="27" stroke="white" stroke-width="1.5" stroke-linecap="round" opacity="0.7"/>
  <path d="M40 14l3-5v27a4 4 0 01-4 4H21a4 4 0 01-4-4V22a4 4 0 014-4h13z" fill="#e4e4e7"/>
  <line x1="24" y1="24" x2="24" y2="32" stroke="#52525b" stroke-width="1.5" stroke-linecap="round" opacity="0.6"/>
  <line x1="27" y1="22" x2="27" y2="34" stroke="#52525b" stroke-width="1.5" stroke-linecap="round" opacity="0.6"/>
  <line x1="30" y1="25" x2="30" y2="31" stroke="#52525b" stroke-width="1.5" stroke-linecap="round" opacity="0.6"/>
  <line x1="33" y1="21" x2="33" y2="35" stroke="#52525b" stroke-width="1.5" stroke-linecap="round" opacity="0.6"/>
</svg>
